<?xml version="1.0" encoding="UTF-8"?>
<svg id="_图层_2" data-name="图层 2" xmlns="http://www.w3.org/2000/svg" viewBox="0 0 154.49 185.39">
  <defs>
    <style>
      .cls-1 {
        fill: #fff;
        stroke-width: 0px;
      }
    </style>
  </defs>
  <g id="_图层_1-2" data-name="图层 1">
    <path class="cls-1" d="m154.27,76.75c-15.21,0-30-4.94-42.17-14.09v63.78c0,32.57-25.09,58.95-56.05,58.95S0,159.02,0,126.44s25.09-58.95,56.05-58.95c3.1,0,6.1.27,9.03.78v33.78c-2.81-1.1-5.79-1.67-8.8-1.67-13.81,0-25.02,11.77-25.02,26.31s11.21,26.31,25.02,26.31,25-11.79,25-26.31V0h31.27c0,24.35,18.77,44.09,41.93,44.09v32.64l-.22.02"/>
  </g>
</svg>