<?xml version="1.0" encoding="utf-8"?>
<!-- Generator: Adobe Illustrator 28.0.0, SVG Export Plug-In . SVG Version: 6.00 Build 0)  -->
<svg version="1.1" xmlns="http://www.w3.org/2000/svg" xmlns:xlink="http://www.w3.org/1999/xlink" x="0px" y="0px"
	 viewBox="0 0 385.3 109.9" style="enable-background:new 0 0 385.3 109.9;" xml:space="preserve">
<style type="text/css">
	.st0{fill:#5E6467;}
	.st1{fill:#FFFFFF;}
	.st2{display:none;}
	.st3{display:inline;fill:#F42E00;}
</style>
<g id="_图层_2">
	<g id="Layer_1">
		<g>
			<path class="st0" d="M178.6,0c0.1,0.2,0.1,0.3-0.1,0.6c-3.9,0.1-7.6,0.1-11.3,0.1c-1.6,0-3.2-0.1-4.8-0.1c0-0.1-0.1-0.2-0.1-0.4
				C167.7,0,173.1,0,178.6,0z"/>
			<path class="st1" d="M162.3,0.5c1.7,0.1,3.3,0.1,4.9,0.1c3.7,0,7.4,0,11.3,0.1c0.1,3.8,0.1,7.5,0.1,11.6c-3.6,0-7.1,0-10.8-0.1
				c-0.4,0.1-0.6,0.2-0.8,0.3c-0.6,0.1-1.1,0.3-1.9,0.3c-0.4,0.1-0.6,0.2-0.8,0.4c-2.1,1-3.6,2.5-4.8,4.7c-0.3,0.7-0.4,1.2-0.5,1.8
				c0,0.1,0,0.3-0.2,0.5c-0.1,0.3-0.1,0.6-0.2,0.8c-0.1,2.2-0.3,4.4-0.3,6.6c-0.1,1.9,0.2,2.2,2.2,2.2c17.2,0,34.4,0,51.6-0.1
				c4.8,0,9.5,0.2,14.1,1.7c6.6,2.3,11.9,6.3,15,12.6c1.7,3.4,2.7,7.1,2.9,11c0.1,4.2,0.1,8.4,0.4,12.7c0.1,2-0.4,3.7-1.6,5.3
				c-3.6,4.6-7.9,8.4-12.9,11.1c-0.6-2.1-0.9-4.3-1.7-6.2c-2.3-5.4-6.7-8.2-12.1-9.6c-6.4-1.6-12.7-1.3-18.7,1.7
				c-6,3.1-9.5,9.9-6.9,16.9c1.9,5,5.7,7.6,10.5,9.1c3.4,1,6.8,1.6,10.3,1.7c9.9,0.1,19-2.6,27-8.4c2.1-1.5,4-3.4,5.9-5.1v23.5
				c-0.6,0-1.2,0.1-1.8,0.1c-7.8,0.2-15.5,0.5-23.3,0.7c-5.1,0.1-10.2,0.4-15.3,0.2c-7.8-0.3-15.3-2.3-21.4-7.5
				c-3.7-3.1-6.2-7.2-7.1-12.1c-1.1-6-0.9-11.9,1.9-17.5c2.9-5.8,7.7-9.6,13.6-12c5.8-2.4,11.9-3.2,18.1-2.7
				c6.7,0.6,13.1,2.4,18.5,6.7c0.5,0.4,1.1,0.5,1.7,0.7c0.1-0.6,0.5-1.2,0.4-1.8c-0.2-3.6-0.3-7.2-1.6-10.6c-1.6-4.2-4.5-7-8.6-8.6
				c-3.1-1.2-6.4-1.6-9.8-1.6c-16.1,0-32.2-0.1-48.3,0.1c-6.1,0.1-12.1,1-18.1,1.5c-1.3,0.1-2.6,0.3-4.1,0.3
				c-0.4,0.1-0.6,0.2-0.8,0.3c-1,0.1-2,0.3-3.2,0.3c-0.4,0.1-0.6,0.2-0.7,0.3c-0.1,0-0.2,0-0.3-0.1c-0.2-0.6-0.4-1-0.5-1.5v-13
				c2.7,0,5.2,0,7.7,0c2.1,0,2.2-0.2,2.3-2.3c0.1-3.3,0.2-6.5,0.4-9.8c0-0.6,0.2-1.2,0.4-1.9c0.1-0.4,0.1-0.6,0.2-0.9
				c1.6-6.3,5.2-10.9,11.6-13.2c0.4-0.1,0.6-0.2,0.8-0.3c0.6-0.1,1.1-0.3,1.9-0.3c0.4-0.1,0.6-0.2,0.8-0.3
				C160.4,0.7,161.3,0.6,162.3,0.5L162.3,0.5z"/>
			<path class="st1" d="M31.5,27.8c3.1-8,6.1-15.9,9.2-23.9h22c7.2,18.9,14.4,37.8,21.7,56.9c2.8-1.6,5.4-3.2,8-4.5
				c4.2-2.2,8.4-4.5,12.8-6.2c2.8-1,4.1-3.5,4.1-6.5c0.1-12.4,0-24.8,0-37.3V3.9h16.1c0,0.4,0.1,0.9,0.1,1.4c0,13.2,0,26.4,0.1,39.6
				c0,1.3-0.5,1.8-1.6,2.1c-6.8,1.8-13.3,4.2-19.7,7c-9.1,4.1-17.6,9.2-25.4,15.3c-3.7,2.9-7,6.2-10.4,9.4c-1.4,1.3-2.5,3.1-3.9,4.4
				c-0.6,0.6-1.7,1.2-2.5,1.2c-6.8,0.1-13.5,0.1-20.3,0.1c-1.7,0-3.4,0-5.3,0c0.9-2.3,1.7-4.3,2.5-6.4s1.7-4.1,2.3-6.3
				c0.4-1.1,0.9-1.5,2.1-1.5c8.3,0.1,16.7,0,25.1,0c2.1,0,2.3-0.4,1.6-2.3c-2.7-7.3-5.4-14.6-8.2-21.9c-3.2-8.5-6.4-17-9.6-25.5
				c-0.1-0.2-0.3-0.3-0.7-0.8c-0.5,1.3-1,2.5-1.5,3.6c-5.2,13.8-10.3,27.5-15.5,41.3c-4.8,12.6-9.6,25.2-14.4,37.7
				c-0.6,1.5-1,3-1.7,4.4c-0.2,0.5-0.9,1-1.4,1c-5.5,0.1-11,0.1-16.6,0.1C4.1,98.5,7.7,89.3,11.3,80c3.9-10,7.7-20,11.6-30
				C25.7,42.7,28.6,35.3,31.5,27.8L31.5,27.8z"/>
			<path class="st1" d="M297.4,47.1c-3-2.4-6.2-3.8-10-4.2c-5.1-0.5-9.7,0.7-13.5,4.1c-2.9,2.5-4.6,5.9-5.3,9.7
				c-0.4,2.1-0.7,4.2-0.7,6.4c-0.1,14.3,0,28.6,0,42.9c0,0.6,0,1.1,0,1.7h-15V29.9h14.7c0,2.1,0,4.1,0,6.1c0,0.4,0.3,0.9,0.5,1.3
				c0.4-0.2,0.9-0.3,1.2-0.6c4.4-4.7,9.9-7,16.2-7.7c6-0.7,11.9-0.3,17.4,2.5c7.8,4,12.3,10.6,13.8,19.2c0.5,2.9,0.7,5.9,0.7,8.9
				c0.1,10.2,0,20.5,0,30.7c0,5.7,0,11.5,0,17.6c-4.1,0.1-8.2,0.1-12.3,0.1c-3.4,0-2.9,0.4-2.9-2.9c0-9.8,0-19.6,0-29.4
				c0-3.7,0.3-7.3,0.3-11c0-5.1-0.2-10.2-3-14.8C298.9,49.2,298.1,48.2,297.4,47.1L297.4,47.1z"/>
			<path class="st1" d="M360.9,63.2c5,1.2,9.8,2.7,14.2,5.2c5.8,3.3,9.2,8.4,9.6,15.1c0.4,5.6-0.9,11-4.6,15.6
				c-4.1,5.2-9.6,7.7-15.8,9.1c-4.2,0.9-8.5,1.3-12.8,0.9c-8.7-0.7-16.8-3.2-23.1-9.6c-3.6-3.8-5.5-8.4-5.9-13.8c4.7,0,9.3,0,13.8,0
				c0.4,0,0.9,0.6,1,0.9c1.4,5,4.8,7.6,9.6,9.1c5.5,1.7,10.9,1.6,16.2-0.4c5.4-2,8.3-7.8,5.5-12.6c-1.5-2.6-4-4.3-6.8-5.2
				c-5.9-1.9-11.9-3.6-17.9-5.4c-5.1-1.6-10-3.4-14-7c-3.2-2.9-5-6.7-5.4-10.9c-0.6-7,1.6-13.1,6.8-17.9c4-3.7,8.9-5.7,14.2-6.5
				c3.8-0.6,7.6-0.8,11.4-0.7c7.5,0.3,14.4,2.6,19.8,8.1c3.1,3.2,5,7.1,5.9,11.5c0.4,1.7,0,1.9-1.7,1.9c-3.4-0.1-6.8-0.1-10.2,0
				c-1.3,0-2-0.2-2.6-1.6c-1.9-5-5.9-7.2-11-7.9c-4.1-0.6-8-0.2-11.7,1.4c-4.5,1.9-7.7,7.3-4.9,11.9c1,1.6,2.6,3.2,4.3,3.9
				c5,1.9,10.2,3.3,15.3,4.9C360.5,63.1,360.6,63.2,360.9,63.2L360.9,63.2z"/>
			<path class="st1" d="M124.5,56.8c4.4-1.4,8.8-2.8,13.1-4.2c0.8,1.6-0.2,1.9-1,2.2c-2.9,1.3-5.6,2.8-7.9,5.2
				c-2.1,2.2-3.1,4.7-3.2,7.6c-0.1,12.7,0,25.4,0,38.1c0,0.6,0,1.2,0,2h-16.2c0-0.6,0-1.2,0-1.7c0-12,0-23.9,0-35.9
				c0-2.2-0.2-2.3-2.1-1.3c-5.6,3-10.4,6.9-14.7,11.5c-0.3,0.3-0.3,1.1-0.1,1.6c1.8,4.9,3.8,9.8,5.6,14.7c1.4,3.7,2.8,7.5,4.3,11.3
				c-5.6,0-11.1,0-16.6,0c-0.4,0-0.9-0.2-1.1-0.5c-1.8-5-3.7-10-5.4-15c-0.2-0.4,0.1-1.1,0.3-1.5c2.6-4.6,6.1-8.6,9.8-12.3
				c3.2-3.2,6.7-6,10.3-8.7c7.4-5.4,15.5-9.5,24.1-12.7C124,57,124.2,56.9,124.5,56.8L124.5,56.8z"/>
			<path class="st1" d="M158.6,78.8c0,5.7,0,11.2,0,16.7c0,3.6,0,7.3,0,10.9c0,0.9-0.2,1.4-1.3,1.4c-4.6,0-9.1,0-13.9,0
				c0-1.6,0-3.1,0-4.7c0-7.5,0-15.1,0-22.6c0-9.2,0-18.5,0-27.7c0-0.5,0.4-1.4,0.8-1.5c4.7-0.8,9.4-1.5,14.4-2.2
				C158.6,59.3,158.6,69,158.6,78.8L158.6,78.8z"/>
			<path class="st0" d="M159.1,19.7c0-0.5,0.1-1.1,0.4-1.7C159.4,18.6,159.3,19.1,159.1,19.7z"/>
			<path class="st0" d="M133.4,43.2c0.2,0.3,0.4,0.8,0.4,1.3C133.6,44.2,133.5,43.7,133.4,43.2z"/>
			<path class="st0" d="M158.8,21c-0.1-0.2-0.1-0.5,0-0.7C158.9,20.5,158.9,20.8,158.8,21z"/>
			<path class="st0" d="M144.3,15.1c0.1,0.2,0.1,0.4,0,0.7C144.2,15.5,144.2,15.3,144.3,15.1z"/>
			<path class="st0" d="M164.4,13.3c0.1-0.2,0.3-0.3,0.6-0.4C164.9,13.1,164.7,13.2,164.4,13.3z"/>
			<path class="st0" d="M138.4,44c0.1-0.2,0.3-0.3,0.6-0.3C138.8,43.8,138.6,44,138.4,44z"/>
			<path class="st0" d="M134.4,44.7c0.1-0.2,0.3-0.3,0.5-0.4C134.8,44.5,134.6,44.6,134.4,44.7z"/>
			<path class="st0" d="M167.1,12.6c0.1-0.2,0.3-0.3,0.6-0.3C167.6,12.4,167.4,12.5,167.1,12.6z"/>
			<path class="st0" d="M156.6,1.5c-0.1,0.2-0.3,0.3-0.6,0.4C156.2,1.6,156.4,1.5,156.6,1.5z"/>
			<path class="st0" d="M159.3,0.8c-0.1,0.2-0.3,0.3-0.6,0.4C158.9,0.9,159.1,0.8,159.3,0.8z"/>
		</g>
	</g>
</g>
<g id="图层_2" class="st2">
	<path class="st3" d="M63.8,83.7l15.4,8.7c0,0,17.7-41.4,106.7-47C185.9,45.4,121.3,26.5,63.8,83.7z"/>
</g>
</svg>
