<?xml version="1.0" encoding="UTF-8"?>
<svg width="24" height="24" viewBox="0 0 24 24" fill="none" xmlns="http://www.w3.org/2000/svg">
  <path d="M9.5,4C5.36,4 2,6.69 2,10C2,11.89 3.08,13.56 4.78,14.66L4,17L6.5,15.5C7.39,15.81 8.37,16 9.41,16C9.15,15.37 9,14.7 9,14C9,10.69 12.13,8 16,8C16.19,8 16.38,8 16.56,8.03C15.54,5.69 12.78,4 9.5,4M6.5,7.5A1,1 0 0,1 7.5,8.5A1,1 0 0,1 6.5,9.5A1,1 0 0,1 5.5,8.5A1,1 0 0,1 6.5,7.5M11.5,7.5A1,1 0 0,1 12.5,8.5A1,1 0 0,1 11.5,9.5A1,1 0 0,1 10.5,8.5A1,1 0 0,1 11.5,7.5M16,9C13.24,9 11,11.24 11,14C11,16.76 13.24,19 16,19C16.84,19 17.63,18.81 18.36,18.5L20,19.5L19.5,17.85C20.5,16.9 21,15.5 21,14C21,11.24 18.76,9 16,9M14.5,12.5A1,1 0 0,1 15.5,13.5A1,1 0 0,1 14.5,14.5A1,1 0 0,1 13.5,13.5A1,1 0 0,1 14.5,12.5M17.5,12.5A1,1 0 0,1 18.5,13.5A1,1 0 0,1 17.5,14.5A1,1 0 0,1 16.5,13.5A1,1 0 0,1 17.5,12.5Z" fill="currentColor"/>
</svg> 