<?xml version="1.0" encoding="UTF-8"?>
<svg id="_图层_2" data-name="图层 2" xmlns="http://www.w3.org/2000/svg" viewBox="0 0 217.61 175.4">
  <defs>
    <style>
      .cls-1 {
        fill: #fff;
        stroke-width: 0px;
      }
    </style>
  </defs>
  <g id="_图层_1-2" data-name="图层 1">
    <path class="cls-1" d="m147.31,53.07c2.5,0,4.97.18,7.42.45C148.07,22.82,114.89,0,77.02,0,34.68,0,0,28.56,0,64.82c0,20.93,11.54,38.12,30.82,51.45l-7.7,22.93,26.92-13.36c9.64,1.88,17.36,3.83,26.98,3.83,2.42,0,4.81-.12,7.19-.31-1.51-5.09-2.38-10.43-2.38-15.97,0-33.3,28.9-60.32,65.48-60.32Zm-41.41-20.67c5.8,0,9.64,3.78,9.64,9.52s-3.84,9.54-9.64,9.54-11.57-3.83-11.57-9.54c0-5.74,5.79-9.52,11.57-9.52Zm-53.9,19.05c-5.78,0-11.6-3.83-11.6-9.54s5.82-9.52,11.6-9.52,9.62,3.78,9.62,9.52-3.85,9.54-9.62,9.54Zm165.61,61.02c0-30.47-30.81-55.31-65.42-55.31-36.64,0-65.5,24.84-65.5,55.31s28.86,55.3,65.5,55.3c7.67,0,15.4-1.9,23.11-3.82l21.13,11.45-5.79-19.04c15.46-11.48,26.98-26.7,26.98-43.89Zm-86.66-9.54c-3.83,0-7.7-3.77-7.7-7.63s3.87-7.62,7.7-7.62c5.82,0,9.64,3.82,9.64,7.62s-3.82,7.63-9.64,7.63Zm42.36,0c-3.8,0-7.65-3.77-7.65-7.63s3.85-7.62,7.65-7.62c5.78,0,9.64,3.82,9.64,7.62s-3.86,7.63-9.64,7.63Z"/>
  </g>
</svg>